# xmcd
#
# Track frame offsets:
#	150
#	25836
#	51179
#	67490
#	88611
#	106701
#	125228
#	142386
#	164355
#	180536
#	205946
#
# Disc length: 2976 seconds
#
# Revision: 0
# Processed by: cddbd v1.5.2PL0 Copyright (c) Steve Scherf et al.
# Submitted via: audiograbber 1.83.01
#
DISCID=a70b9e0b
DTITLE=Tom Russell - Borderland
DYEAR=2001
DGENRE=Country
TTITLE0=Touch Of Evil
TTITLE1=Down The Rio Grande
TTITLE2=When Sinatra Played Juarez
TTITLE3=Where The Dream Begins
TTITLE4=Hills Of Old Juarez
TTITLE5=The Santa Fe At Midnight
TTITLE6=The Next Thing Smokin'
TTITLE7=California Snow
TTITLE8=Let It Go
TTITLE9=What Work Is
TTITLE10=The Road It Gives, The Road It Takes Away
EXTD=
EXTT0=
EXTT1=
EXTT2=
EXTT3=
EXTT4=
EXTT5=
EXTT6=
EXTT7=
EXTT8=
EXTT9=
EXTT10=
PLAYORDER=
